<svg xmlns="http://www.w3.org/2000/svg" viewBox="0 0 1230.45 539.95"><defs><style>.cls-1{font-size:270.74px;font-family:MyriadPro-Bold, Myriad Pro;}.cls-1,.cls-3,.cls-4{fill:#fff;}.cls-1,.cls-3{font-weight:700;}.cls-2{letter-spacing:-0.01em;}.cls-3{font-size:69.92px;font-family:Metropolis-Bold, Metropolis;letter-spacing:0.2em;}</style></defs><g id="Layer_2" data-name="Layer 2"><g id="Layer_2-2" data-name="Layer 2"><text class="cls-1" transform="translate(303.21 423.54)">h<tspan class="cls-2" x="158.65" y="0">r</tspan><tspan x="259.37" y="0">eassa</tspan></text><text class="cls-3" transform="translate(591.78 519.6)">TECHNOLOGY</text><path class="cls-4" d="M207.25,230a95.58,95.58,0,0,0-59.76,20.87,22.61,22.61,0,0,1,2.62-.16,21.84,21.84,0,0,1,21.65,24.79,61.69,61.69,0,1,1-17.17,82.6A21.87,21.87,0,0,1,124,373.7,96,96,0,1,0,207.25,230Z"/><circle class="cls-4" cx="210.12" cy="325.93" r="40.02"/><path class="cls-4" d="M245.58,136.45c19,42-2.67,77.94-2.67,77.94-.64,1.28-1.68,3.27-3,5.76l30.35,17.53c14.5-27.11,17.28-67.92,17.28-67.92-3-75.94-66-99.93-66-99.93-54-27-112.91,5-112.91,5-44,23-53,71-53,71-11,42,11,84.93,11,84.93,2-2,43,77.94,43,77.94,9,22,4,33,4,33h37c1-6-7-39-7-39-4-19-37-74-37-74-31-45-14-83.93-14-83.93,22-56,74.94-50.63,74.94-50.63C227.58,92.49,245.58,136.45,245.58,136.45Z"/><rect class="cls-4" x="162.32" width="15.54" height="41.72" rx="7.77"/><rect class="cls-4" x="311.56" y="138.55" width="15.54" height="41.72" rx="7.77" transform="translate(478.73 -159.92) rotate(90)"/><rect class="cls-4" x="13.09" y="138.55" width="15.54" height="41.72" rx="7.77" transform="translate(180.26 138.55) rotate(90)"/><rect class="cls-4" x="282.24" y="38.15" width="15.54" height="41.72" rx="7.77" transform="translate(126.67 -187.79) rotate(45)"/><rect class="cls-4" x="44.87" y="38.15" width="15.54" height="41.72" rx="7.77" transform="translate(131.59 63.52) rotate(135)"/></g></g></svg>